<?xml version="1.0" encoding="UTF-8" standalone="no"?>
<!-- Created with Inkscape (http://www.inkscape.org/) -->

<svg
   width="29.686249mm"
   height="27.013958mm"
   viewBox="0 0 29.686249 27.013958"
   version="1.1"
   id="svg1"
   sodipodi:docname="add_course.svg"
   inkscape:version="1.3 (0e150ed6c4, 2023-07-21)"
   xmlns:inkscape="http://www.inkscape.org/namespaces/inkscape"
   xmlns:sodipodi="http://sodipodi.sourceforge.net/DTD/sodipodi-0.dtd"
   xmlns="http://www.w3.org/2000/svg"
   xmlns:svg="http://www.w3.org/2000/svg">
  <sodipodi:namedview
     id="namedview1"
     pagecolor="#ffffff"
     bordercolor="#000000"
     borderopacity="0.25"
     inkscape:showpageshadow="2"
     inkscape:pageopacity="0.0"
     inkscape:pagecheckerboard="0"
     inkscape:deskcolor="#d1d1d1"
     inkscape:document-units="mm"
     inkscape:zoom="2.768771"
     inkscape:cx="-47.132825"
     inkscape:cy="10.293376"
     inkscape:window-width="1920"
     inkscape:window-height="991"
     inkscape:window-x="-9"
     inkscape:window-y="-9"
     inkscape:window-maximized="1"
     inkscape:current-layer="g5" />
  <defs
     id="defs1">
    <pattern
       id="EMFhbasepattern"
       patternUnits="userSpaceOnUse"
       width="6"
       height="6"
       x="0"
       y="0" />
  </defs>
  <g
     inkscape:label="Camada 1"
     inkscape:groupmode="layer"
     id="layer1"
     transform="translate(-232.03958,-134.67292)">
    <g
       id="g5"
       transform="matrix(0.26458333,0,0,0.26458333,168.40729,36.644792)">&#10;	<path
   class="st0"
   d="m 312.8,445.3 h -25.2 c -1.1,0 -1.9,0.9 -1.9,1.9 0,1.1 0.9,1.9 1.9,1.9 h 25.2 c 1.1,0 1.9,-0.9 1.9,-1.9 0,-1 -0.9,-1.9 -1.9,-1.9 z"
   id="path1"
   style="fill:#000000;fill-opacity:1" />
&#10;	<path
   class="st0"
   d="m 276,445.3 h -1 c -1.1,0 -1.9,0.9 -1.9,1.9 0,1.1 0.9,1.9 1.9,1.9 h 1 c 1.1,0 1.9,-0.9 1.9,-1.9 0,-1 -0.9,-1.9 -1.9,-1.9 z"
   id="path2"
   style="fill:#000000;fill-opacity:1" />
&#10;	<path
   class="st0"
   d="m 317.4,406.9 h -21.7 l -5.8,-5.8 v 0 c -0.4,-0.4 -0.9,-0.7 -1.5,-0.7 h -14.3 c -0.6,0 -1.1,0.5 -1.1,1.1 v 8.4 0.2 15 2.9 1.8 c 0,4.3 3.5,7.8 7.8,7.8 h 30.8 c 4.3,0 7.8,-3.5 7.8,-7.8 v -1.8 -2.9 -16.2 c 0,-1.2 -0.9,-2 -2,-2 z m -2,18.2 v 2.9 1.8 c 0,2.1 -1.7,3.8 -3.8,3.8 h -30.8 c -2.1,0 -3.8,-1.7 -3.8,-3.8 v -1.8 -2.9 -15 -0.2 -5.5 h 10.6 l 5.9,6.1 v -0.3 l 0.6,0.6 h 1.7 19.6 z"
   id="path3"
   style="fill:#000000;fill-opacity:1" />
&#10;	<path
   class="st0"
   d="m 352.1,451.8 v -66.3 -13 0 c 0,-1.1 -0.9,-2 -2,-2 H 242.5 c -1.1,0 -2,0.9 -2,2 v 89.9 c 0,1.1 0.9,2 2,2 h 79.3 c 2.9,4.9 8.2,8.2 14.3,8.2 9.2,0 16.6,-7.4 16.6,-16.6 0,-1.4 -0.2,-2.8 -0.6,-4.2 z m -4,-68.6 h -8.8 v -8.8 h 8.8 z m -34.5,0 v -8.8 h 8.8 v 8.8 z m 12.8,-8.8 h 8.8 v 8.8 h -8.8 z m -82,0 h 65.1 v 8.8 h -65.1 z m 75.6,86 h -75.6 v -73.2 h 103.7 v 57.5 c -3,-3.2 -7.3,-5.2 -12.1,-5.2 -9.2,0 -16.6,7.4 -16.6,16.6 0,1.4 0.3,2.9 0.6,4.3 z m 16.1,8.2 c -7,0 -12.6,-5.7 -12.6,-12.6 0,-6.9 5.7,-12.6 12.6,-12.6 6.9,0 12.6,5.7 12.6,12.6 0,6.9 -5.7,12.6 -12.6,12.6 z"
   id="path4"
   style="fill:#000000;fill-opacity:1" />
&#10;	<path
   class="st0"
   d="M 340.8,454.1 H 338 v -2.8 c 0,-1 -0.8,-1.8 -1.8,-1.8 H 336 c -1,0 -1.8,0.8 -1.8,1.8 v 2.8 h -2.8 c -1,0 -1.8,0.8 -1.8,1.8 v 0.1 c 0,1 0.8,1.8 1.8,1.8 h 2.8 v 2.8 c 0,1 0.8,1.8 1.8,1.8 h 0.1 c 1,0 1.8,-0.8 1.8,-1.8 v -2.8 h 2.8 c 1,0 1.8,-0.8 1.8,-1.8 v -0.1 c 0.1,-1 -0.7,-1.8 -1.7,-1.8 z"
   id="path5"
   style="fill:#000000;fill-opacity:1" />
&#10;</g>
  </g>
</svg>
