<?xml version="1.0" encoding="UTF-8" standalone="no"?>
<!-- Created with Inkscape (http://www.inkscape.org/) -->

<svg
   width="25.707478mm"
   height="16.619658mm"
   viewBox="0 0 25.707478 16.619658"
   version="1.1"
   id="svg1"
   inkscape:version="1.3 (0e150ed6c4, 2023-07-21)"
   sodipodi:docname="etiqueta.svg"
   xmlns:inkscape="http://www.inkscape.org/namespaces/inkscape"
   xmlns:sodipodi="http://sodipodi.sourceforge.net/DTD/sodipodi-0.dtd"
   xmlns="http://www.w3.org/2000/svg"
   xmlns:svg="http://www.w3.org/2000/svg">
  <sodipodi:namedview
     id="namedview1"
     pagecolor="#ffffff"
     bordercolor="#000000"
     borderopacity="0.25"
     inkscape:showpageshadow="2"
     inkscape:pageopacity="0.0"
     inkscape:pagecheckerboard="0"
     inkscape:deskcolor="#d1d1d1"
     inkscape:document-units="mm"
     inkscape:zoom="5.5375421"
     inkscape:cx="95.439455"
     inkscape:cy="14.35655"
     inkscape:window-width="1920"
     inkscape:window-height="991"
     inkscape:window-x="-9"
     inkscape:window-y="-9"
     inkscape:window-maximized="1"
     inkscape:current-layer="layer1" />
  <defs
     id="defs1">
    <pattern
       id="EMFhbasepattern"
       patternUnits="userSpaceOnUse"
       width="6"
       height="6"
       x="0"
       y="0" />
  </defs>
  <g
     inkscape:label="Camada 1"
     inkscape:groupmode="layer"
     id="layer1"
     transform="translate(-42.999956,-151.65327)">
    <path
       id="rect2"
       style="fill:#e3e601;fill-opacity:1;stroke-width:0.378595"
       d="m 119.35114,104.01794 30.61189,7.2e-4 -3.39783,-5.186243 -19.23809,-6.1e-5 z"
       transform="matrix(0.83980027,0.54289548,-0.55020474,0.83502978,0,0)" />
    <path
       id="text2"
       style="font-size:3.175px;fill:#5a584e;fill-opacity:1;stroke-width:0.309511"
       d="m 57.090511,155.98745 c -0.153281,-0.10352 -0.312023,-0.17249 -0.476163,-0.20703 -0.163143,-0.0339 -0.320382,-0.0298 -0.471628,0.0119 -0.158481,0.0443 -0.30871,0.12491 -0.450675,0.24198 -0.141315,0.11602 -0.271087,0.26778 -0.389313,0.45522 -0.12018,0.19054 -0.203143,0.37609 -0.24892,0.55667 -0.04478,0.18124 -0.05452,0.35308 -0.02926,0.51555 0.02527,0.16245 0.08471,0.31348 0.17834,0.45307 0.09459,0.14033 0.22007,0.26315 0.376336,0.36868 0.160246,0.10817 0.319172,0.17804 0.476711,0.20953 0.158534,0.0322 0.316396,0.0272 0.473578,-0.0149 0.15159,-0.0401 0.298876,-0.11828 0.441838,-0.23472 0.144615,-0.11674 0.276673,-0.26989 0.3962,-0.45941 0.119527,-0.1895 0.201999,-0.37538 0.247421,-0.55766 0.04642,-0.1816 0.05682,-0.35448 0.03121,-0.51865 -0.02558,-0.15972 -0.08517,-0.30938 -0.178795,-0.44896 -0.09197,-0.13998 -0.217571,-0.26375 -0.376822,-0.3713 z m 4.496886,3.0369 c -0.153279,-0.10354 -0.312021,-0.17251 -0.476162,-0.20705 -0.163142,-0.0339 -0.320383,-0.0298 -0.471629,0.0119 -0.158479,0.0443 -0.308708,0.12489 -0.450675,0.24198 -0.141313,0.11602 -0.271085,0.26778 -0.389311,0.45522 -0.12018,0.19054 -0.203154,0.3761 -0.248921,0.55667 -0.04478,0.18124 -0.05452,0.35308 -0.02926,0.51555 0.02527,0.16245 0.08472,0.31348 0.178341,0.45307 0.09459,0.14033 0.22007,0.26315 0.376335,0.36868 0.160248,0.10828 0.319173,0.17803 0.476713,0.20954 0.158534,0.0322 0.316396,0.0272 0.473578,-0.015 0.15159,-0.0401 0.298874,-0.11828 0.441837,-0.23472 0.144614,-0.11673 0.276682,-0.26988 0.396209,-0.45937 0.119527,-0.18952 0.201999,-0.3754 0.247423,-0.55767 0.04642,-0.18161 0.05682,-0.35449 0.03121,-0.51865 -0.02556,-0.15972 -0.08517,-0.30938 -0.178796,-0.44898 -0.09197,-0.13997 -0.217572,-0.26374 -0.376823,-0.37129 z m -7.71907,-5.14473 -1.450887,2.30032 0.276202,0.18653 1.297904,-2.05778 -0.243851,2.76961 0.365782,0.24703 1.450888,-2.30031 -0.276204,-0.18654 -1.184875,1.87857 0.22339,-2.52789 z m 4.434182,2.99454 -0.641687,2.8468 0.394149,0.26618 2.260089,-1.75383 -0.301583,-0.20368 -1.973698,1.55294 0.579243,-2.49466 z m -1.377097,-0.62158 c 0.223949,0.15125 0.349331,0.35187 0.37606,0.60203 0.0274,0.24908 -0.05308,0.52295 -0.241468,0.82163 -0.190337,0.30177 -0.401857,0.48862 -0.634582,0.56055 -0.231077,0.0716 -0.457097,0.0328 -0.678059,-0.11649 -0.220963,-0.14923 -0.346791,-0.34802 -0.377485,-0.59639 -0.03005,-0.24939 0.0501,-0.52496 0.240432,-0.82673 0.188381,-0.29867 0.397761,-0.48551 0.628152,-0.56049 0.232032,-0.0753 0.461012,-0.0368 0.68695,0.11589 z m 4.496886,3.0369 c 0.223949,0.15124 0.349333,0.35187 0.37606,0.60201 0.0274,0.2491 -0.05308,0.52296 -0.241468,0.82163 -0.190336,0.30177 -0.401856,0.48862 -0.63458,0.56056 -0.231077,0.0716 -0.457099,0.0328 -0.678061,-0.11649 -0.220962,-0.14922 -0.34679,-0.34802 -0.377483,-0.59639 -0.03005,-0.24938 0.0501,-0.52496 0.240432,-0.82673 0.188381,-0.29868 0.397761,-0.4855 0.628152,-0.5605 0.232031,-0.0753 0.46101,-0.0368 0.686948,0.11591 z"
       sodipodi:nodetypes="scccscscscccscccsscccscscscccscccscccccccccccccccccccscscscscsscscscscs" />
  </g>
</svg>
