<?xml version="1.0" encoding="UTF-8" standalone="no"?>
<!-- Generator: Adobe Illustrator 26.0.1, SVG Export Plug-In . SVG Version: 6.00 Build 0)  -->

<svg
   version="1.1"
   id="Camada_1"
   x="0px"
   y="0px"
   viewBox="0 0 339.50001 130"
   xml:space="preserve"
   sodipodi:docname="logo_footer.svg"
   width="339.5"
   height="130"
   inkscape:version="1.3 (0e150ed6c4, 2023-07-21)"
   xmlns:inkscape="http://www.inkscape.org/namespaces/inkscape"
   xmlns:sodipodi="http://sodipodi.sourceforge.net/DTD/sodipodi-0.dtd"
   xmlns="http://www.w3.org/2000/svg"
   xmlns:svg="http://www.w3.org/2000/svg"><defs
   id="defs5" /><sodipodi:namedview
   id="namedview5"
   pagecolor="#ffffff"
   bordercolor="#000000"
   borderopacity="0.25"
   inkscape:showpageshadow="2"
   inkscape:pageopacity="0.0"
   inkscape:pagecheckerboard="0"
   inkscape:deskcolor="#d1d1d1"
   inkscape:zoom="0.92291243"
   inkscape:cx="124.06377"
   inkscape:cy="204.24473"
   inkscape:window-width="1920"
   inkscape:window-height="991"
   inkscape:window-x="-9"
   inkscape:window-y="-9"
   inkscape:window-maximized="1"
   inkscape:current-layer="Camada_1" />&#10;<style
   type="text/css"
   id="style1">&#10;	.st0{fill:#010202;}&#10;</style>&#10;<g
   id="g5"
   transform="translate(-173.6,-216.9)"
   style="fill:#9a9a9a;fill-opacity:1">&#10;	<path
   class="st0"
   d="M 251.9,331.6 H 189.1 V 224.5 c 0,-4.2 -3.4,-7.6 -7.6,-7.6 h -0.3 c -4.2,0 -7.6,3.4 -7.6,7.6 v 114.7 c 0,4.2 3.4,7.6 7.6,7.6 h 0.3 70.4 c 4.2,0 7.6,-3.4 7.6,-7.6 0,-4.2 -3.4,-7.6 -7.6,-7.6 z"
   id="path1"
   style="fill:#9a9a9a;fill-opacity:1" />&#10;	<path
   class="st0"
   d="m 355.1,331.6 h -70.8 c -4.2,0 -7.6,3.4 -7.6,7.6 0,4.2 3.4,7.6 7.6,7.6 h 70.8 c 4.2,0 7.6,-3.4 7.6,-7.6 0,-4.2 -3.4,-7.6 -7.6,-7.6 z"
   id="path2"
   style="fill:#9a9a9a;fill-opacity:1" />&#10;	<path
   class="st0"
   d="m 355.1,216.9 h -70.8 c -4.2,0 -7.6,3.4 -7.6,7.6 0,4.2 3.4,7.6 7.6,7.6 h 70.8 c 4.2,0 7.6,-3.4 7.6,-7.6 0,-4.2 -3.4,-7.6 -7.6,-7.6 z"
   id="path3"
   style="fill:#9a9a9a;fill-opacity:1" />&#10;	<path
   class="st0"
   d="m 355.1,274.3 h -70.8 c -4.2,0 -7.6,3.4 -7.6,7.6 0,4.2 3.4,7.6 7.6,7.6 h 70.8 c 4.2,0 7.6,-3.4 7.6,-7.6 0,-4.2 -3.4,-7.6 -7.6,-7.6 z"
   id="path4"
   style="fill:#9a9a9a;fill-opacity:1" />&#10;	<path
   class="st0"
   d="m 448.1,216.9 c -35.9,0 -65,29.1 -65,65 0,35.9 29.1,65 65,65 35.9,0 65,-29.1 65,-65 0,-35.9 -29.1,-65 -65,-65 z m 0,114.7 c -27.5,0 -49.7,-22.3 -49.7,-49.7 0,-27.4 22.3,-49.7 49.7,-49.7 27.5,0 49.7,22.3 49.7,49.7 0,27.4 -22.2,49.7 -49.7,49.7 z"
   id="path5"
   style="fill:#9a9a9a;fill-opacity:1" />&#10;</g>&#10;</svg>
